<?xml version="1.0" encoding="utf-8"?>
<!-- Generator: Adobe Illustrator 18.0.0, SVG Export Plug-In . SVG Version: 6.00 Build 0)  -->
<!DOCTYPE svg PUBLIC "-//W3C//DTD SVG 1.1//EN" "http://www.w3.org/Graphics/SVG/1.1/DTD/svg11.dtd">
<svg version="1.1" id="Layer_1" xmlns="http://www.w3.org/2000/svg" xmlns:xlink="http://www.w3.org/1999/xlink" x="0px" y="0px"
	 viewBox="0 0 35.5 150" enable-background="new 0 0 35.5 150" xml:space="preserve">
<rect x="3.8" y="51.7" width="29.1" height="48.9"/>
<g>
	<path fill="#FFFFFF" stroke="#000000" stroke-width="0.5971" stroke-miterlimit="10" d="M21,91.8c0,0,0,0-2.6,0c-2.6,0-2.6,0-2.6,0
		L1.4,126.5c0,0,7.8,5.4,9.3,16.6h7.7h7.7c1.5-11.2,9.3-16.6,9.3-16.6L21,91.8z"/>
	<line fill="none" stroke="#000000" stroke-width="0.5767" stroke-miterlimit="10" x1="18.5" y1="91.8" x2="18.5" y2="122.9"/>
	<rect x="1" y="143.1" fill="#FFFFFF" stroke="#000000" stroke-width="0.5971" stroke-miterlimit="10" width="34.1" height="6"/>
	<circle fill="none" stroke="#000000" stroke-width="0.5971" stroke-miterlimit="10" cx="18.5" cy="125.2" r="2.2"/>
</g>
<g>
	<path fill="#FFFFFF" stroke="#000000" stroke-width="0.5936" stroke-miterlimit="10" d="M20.9,57.9c0,0,0,0-2.5,0
		c-2.5,0-2.5,0-2.5,0L1.4,23.5c0,0,7.8-5.4,9.3-16.5h7.6H26c1.5,11.1,9.3,16.5,9.3,16.5L20.9,57.9z"/>
	<line fill="none" stroke="#000000" stroke-width="0.5741" stroke-miterlimit="10" x1="18.4" y1="57.9" x2="18.4" y2="26.9"/>
	<rect x="1" y="1" fill="#FFFFFF" stroke="#000000" stroke-width="0.5936" stroke-miterlimit="10" width="33.9" height="6"/>
	<circle fill="none" stroke="#000000" stroke-width="0.5936" stroke-miterlimit="10" cx="18.4" cy="24.7" r="2.2"/>
</g>
<rect x="15.8" y="57.9" fill="#FFFFFF" width="5.2" height="33.9"/>
<g>
	<path d="M3.6,100.5V51.9H9v16.5h18.6V51.9H33v48.7h-5.4V81.1H9v19.4H3.6z"/>
</g>
</svg>
